<?xml version="1.0" encoding="UTF-8"?>
<svg id="_レイヤー_2" data-name="レイヤー 2" xmlns="http://www.w3.org/2000/svg" viewBox="0 0 39.53 39.53">
  <defs>
    <style>
      .cls-1 {
        fill: #fff;
      }

      .cls-2 {
        fill: #23b1b2;
      }
    </style>
  </defs>
  <g id="L_Leergrundriss">
    <g>
      <path class="cls-1" d="m19.77,0C8.85,0,0,8.85,0,19.77s8.85,19.76,19.77,19.76,19.76-8.85,19.76-19.76S30.68,0,19.77,0Zm10.42,20.36l-15.65,12.26c-.42.33-.76.16-.76-.37V7.28c0-.53.34-.7.76-.37l15.65,12.26c.41.33.41.87,0,1.19Z"/>
      <path class="cls-2" d="m30.72,19.94c.12-.1.12-.25,0-.35L14,6.49c-.12-.1-.22-.05-.22.11v26.34c0,.16.1.2.22.11l16.72-13.1Z"/>
    </g>
  </g>
</svg>