<?xml version="1.0" encoding="UTF-8"?>
<svg id="_レイヤー_2" data-name="レイヤー 2" xmlns="http://www.w3.org/2000/svg" viewBox="0 0 199.66 66.38">
  <defs>
    <style>
      .cls-1 {
        fill: #fff;
      }

      .cls-2 {
        fill: #219bdd;
      }
    </style>
  </defs>
  <g id="_レイヤー_1-2" data-name="レイヤー 1">
    <g>
      <path class="cls-2" d="m143.76,50.98h-60.1c-.42,0-.77-.34-.77-.77s.34-.77.77-.77h60.1c.42,0,.77.34.77.77s-.34.77-.77.77Z"/>
      <path class="cls-2" d="m143.76,54.47h-60.1c-.42,0-.77-.34-.77-.77s.34-.77.77-.77h60.1c.42,0,.77.34.77.77s-.34.77-.77.77Z"/>
      <rect class="cls-2" x="29.72" y="47.25" width="54.24" height="9.45"/>
      <path class="cls-1" d="m64.76,52.29h-27.75c-.28,0-.51-.23-.51-.51s.23-.51.51-.51h27.75c.28,0,.51.23.51.51s-.23.51-.51.51Z"/>
      <rect class="cls-2" x="143.36" y="47.25" width="41.66" height="9.45"/>
      <g>
        <circle class="cls-2" cx="156.72" cy="57.96" r="8.42"/>
        <circle class="cls-1" cx="156.72" cy="57.94" r="3.89"/>
      </g>
      <g>
        <circle class="cls-2" cx="173.67" cy="57.96" r="8.42"/>
        <circle class="cls-1" cx="173.67" cy="57.94" r="3.89"/>
      </g>
      <polygon class="cls-2" points="5.59 10.91 .26 30.58 0 56.84 36.34 56.84 36.34 10.75 5.59 10.91"/>
      <path class="cls-1" d="m11.18,48.3H1.4c-.28,0-.51-.23-.51-.51s.23-.51.51-.51h9.59l3.85-3.4c.09-.08.21-.13.34-.13h19.91c.28,0,.51.23.51.51s-.23.51-.51.51H15.37l-3.85,3.4c-.09.08-.21.13-.34.13Z"/>
      <path class="cls-1" d="m35.19,18.81H4.54c-.28,0-.51-.23-.51-.51s.23-.51.51-.51h30.65c.28,0,.51.23.51.51s-.23.51-.51.51Z"/>
      <polygon class="cls-1" points="4.67 20.02 1.66 31.15 1.63 34.21 19.21 34.02 19.26 20.19 4.67 20.02"/>
      <g>
        <circle class="cls-2" cx="19.8" cy="57.96" r="8.42"/>
        <circle class="cls-1" cx="19.8" cy="57.94" r="3.89"/>
      </g>
      <g>
        <circle class="cls-2" cx="70.83" cy="57.96" r="8.42"/>
        <circle class="cls-1" cx="70.83" cy="57.94" r="3.89"/>
      </g>
      <rect class="cls-2" x="195" y="43.13" width="2.8" height="13.71"/>
      <rect class="cls-2" x="44.52" width="155.14" height="47.25"/>
      <g>
        <path class="cls-1" d="m52.8,42.77c-.28,0-.51-.23-.51-.51V5.12c0-.28.23-.51.51-.51s.51.23.51.51v37.14c0,.28-.23.51-.51.51Z"/>
        <path class="cls-1" d="m63.46,42.77c-.28,0-.51-.23-.51-.51V5.12c0-.28.23-.51.51-.51s.51.23.51.51v37.14c0,.28-.23.51-.51.51Z"/>
        <path class="cls-1" d="m74.12,42.77c-.28,0-.51-.23-.51-.51V5.12c0-.28.23-.51.51-.51s.51.23.51.51v37.14c0,.28-.23.51-.51.51Z"/>
        <path class="cls-1" d="m84.78,42.77c-.28,0-.51-.23-.51-.51V5.12c0-.28.23-.51.51-.51s.51.23.51.51v37.14c0,.28-.23.51-.51.51Z"/>
        <path class="cls-1" d="m95.44,42.77c-.28,0-.51-.23-.51-.51V5.12c0-.28.23-.51.51-.51s.51.23.51.51v37.14c0,.28-.23.51-.51.51Z"/>
        <path class="cls-1" d="m106.1,42.77c-.28,0-.51-.23-.51-.51V5.12c0-.28.23-.51.51-.51s.51.23.51.51v37.14c0,.28-.23.51-.51.51Z"/>
        <path class="cls-1" d="m116.76,42.77c-.28,0-.51-.23-.51-.51V5.12c0-.28.23-.51.51-.51s.51.23.51.51v37.14c0,.28-.23.51-.51.51Z"/>
        <path class="cls-1" d="m127.42,42.77c-.28,0-.51-.23-.51-.51V5.12c0-.28.23-.51.51-.51s.51.23.51.51v37.14c0,.28-.23.51-.51.51Z"/>
        <path class="cls-1" d="m138.08,42.77c-.28,0-.51-.23-.51-.51V5.12c0-.28.23-.51.51-.51s.51.23.51.51v37.14c0,.28-.23.51-.51.51Z"/>
        <path class="cls-1" d="m148.74,42.77c-.28,0-.51-.23-.51-.51V5.12c0-.28.23-.51.51-.51s.51.23.51.51v37.14c0,.28-.23.51-.51.51Z"/>
        <path class="cls-1" d="m159.4,42.77c-.28,0-.51-.23-.51-.51V5.12c0-.28.23-.51.51-.51s.51.23.51.51v37.14c0,.28-.23.51-.51.51Z"/>
        <path class="cls-1" d="m170.06,42.77c-.28,0-.51-.23-.51-.51V5.12c0-.28.23-.51.51-.51s.51.23.51.51v37.14c0,.28-.23.51-.51.51Z"/>
        <path class="cls-1" d="m180.72,42.77c-.28,0-.51-.23-.51-.51V5.12c0-.28.23-.51.51-.51s.51.23.51.51v37.14c0,.28-.23.51-.51.51Z"/>
        <path class="cls-1" d="m191.38,42.77c-.28,0-.51-.23-.51-.51V5.12c0-.28.23-.51.51-.51s.51.23.51.51v37.14c0,.28-.23.51-.51.51Z"/>
      </g>
    </g>
  </g>
</svg>