<?xml version="1.0" encoding="UTF-8"?>
<svg id="_レイヤー_2" data-name="レイヤー 2" xmlns="http://www.w3.org/2000/svg" viewBox="0 0 517.3 73.15">
  <defs>
    <style>
      .cls-1 {
        fill: #00a0e2;
      }

      .cls-2 {
        fill: #231815;
      }
    </style>
  </defs>
  <g id="_レイヤー_1-2" data-name="レイヤー 1">
    <g>
      <g>
        <polygon class="cls-2" points="45.39 53.78 69.18 27.95 69.18 42.39 90.77 42.39 90.77 0 68.54 0 45.39 26.09 22.24 0 0 0 0 42.39 21.6 42.39 21.6 27.95 45.39 53.78"/>
        <rect class="cls-1" y="53.78" width="90.77" height="19.37"/>
      </g>
      <path class="cls-2" d="m188.78,16.01h11.57v42.45h-11.57V16.01Zm160.83,42.45h11.57V16.01h-11.57v42.45ZM210.39,26.06h12v32.4h11.71V26.06h11.74v-10.04h-35.44v10.04Zm189.85,15.34h16.55v-9.29h-16.55v-6.59h24.04v-9.5h-35.31v42.45h35.52v-10.41h-24.25v-6.65Zm65.08,5.29l10.59,11.78h-13.05l-3.33-3.81s-1.34,1.84-2.77,3.82c-2.65.15-8.59.16-14.23,0-5.21-.15-8.96-3.34-8.96-10.21v-6.03l7.71-8.57-2.88-3.3v-6.3c0-4.03,3.18-8.22,8.62-8.51,4.33-.23,7.05-.26,11.56,0,5.49.31,8.42,4.48,8.42,8.51v3.94l-9.65,3.92v-7.28h-8.53v3.65l10.25,11.42,3.86-5.27h11.32l-8.93,12.24Zm-17.62-5.66l-3.13,3.49v4.15s8.02,0,8.02,0l.78-1.09-5.67-6.54Zm-167.42-25.47c-5.88-.31-10.25-.3-15.72,0-6.09.33-9.54,4.62-9.54,10.34v5.64c0,5.72,4.1,10.03,9.54,10.03h14.63v7.26h-15.82v-5.54l-10.99,4.12v1.36c0,5.56,4.82,9.95,10.79,10.18,6.09.24,10.96.3,17.11,0,6.12-.3,9.54-4.75,9.54-10.18v-6.92c0-5.7-3.88-10-9.02-10h-14.84v-6.89h13.17v5.59l10.68-4.2v-.61c0-5.72-3.61-9.87-9.54-10.18Zm227.47,0c-5.88-.31-10.25-.3-15.72,0-6.09.33-9.54,4.62-9.54,10.34v5.64c0,5.72,4.1,10.03,9.54,10.03h14.63v7.26h-15.2v-5.54l-10.99,4.12v1.36c0,5.56,4.82,9.95,10.79,10.18,6.09.24,10.34.3,16.49,0,6.12-.3,9.54-4.75,9.54-10.18v-6.92c0-5.7-3.88-10-9.02-10h-14.84v-6.89h13.17v5.59l10.68-4.2v-.61c0-5.72-3.61-9.87-9.54-10.18Zm-181.83,33.18h-13.4V16.01h-11.58v32.74c0,5.62,3.76,9.89,9.21,10.17,5.11.26,13.03.2,18.15,0,5.3-.2,9.19-4.55,9.19-10.17V16.01h-11.57v32.72ZM176.12,16.01h-11.12l-15,30.29-15.2-30.29h-11.12v42.45h11v-19.01l9.67,19.01h11.08l9.67-19.01v19.01h11V16.01Z"/>
    </g>
  </g>
</svg>