<?xml version="1.0" encoding="UTF-8"?>
<svg id="_レイヤー_2" data-name="レイヤー 2" xmlns="http://www.w3.org/2000/svg" viewBox="0 0 34.3 33.96">
  <defs>
    <style>
      .cls-1 {
        fill: #fff;
      }
    </style>
  </defs>
  <g id="L_Leergrundriss">
    <g>
      <path class="cls-1" d="m31.5,8.23C28.52,3.3,23.14,0,16.98,0,8.24,0,1.02,6.65.1,15.16h3.3c.89-6.71,6.63-11.91,13.58-11.91,4.81,0,9.04,2.49,11.5,6.26l-2.69,1.14,7.6,6.11.92-9.71-2.81,1.19Z"/>
      <path class="cls-1" d="m30.92,18.81c-.9,6.71-6.65,11.91-13.59,11.91-4.83,0-9.05-2.5-11.5-6.26l2.69-1.14L.92,17.22l-.92,9.71,2.81-1.19c2.98,4.93,8.36,8.23,14.52,8.23,8.74,0,15.96-6.65,16.88-15.16h-3.28Z"/>
    </g>
  </g>
</svg>