<?xml version="1.0" encoding="UTF-8"?>
<svg id="_レイヤー_2" data-name="レイヤー 2" xmlns="http://www.w3.org/2000/svg" viewBox="0 0 167.71 55.63">
  <defs>
    <style>
      .cls-1 {
        fill: #003fdb;
      }

      .cls-2 {
        fill: #fff;
      }

      .cls-3 {
        fill: none;
        stroke: #fff;
        stroke-linecap: round;
        stroke-linejoin: round;
        stroke-width: 1.02px;
      }
    </style>
  </defs>
  <g id="_レイヤー_1-2" data-name="レイヤー 1">
    <g>
      <path class="cls-1" d="m113.66,40.23h-60.1c-.42,0-.77-.34-.77-.77s.34-.77.77-.77h60.1c.42,0,.77.34.77.77s-.34.77-.77.77Z"/>
      <path class="cls-1" d="m113.66,43.72h-60.1c-.42,0-.77-.34-.77-.77s.34-.77.77-.77h60.1c.42,0,.77.34.77.77s-.34.77-.77.77Z"/>
      <rect class="cls-1" x="29.72" y="36.5" width="54.24" height="9.45"/>
      <line class="cls-3" x1="37" y1="41.03" x2="64.76" y2="41.03"/>
      <rect class="cls-1" x="113.27" y="36.5" width="41.66" height="9.45"/>
      <g>
        <circle cx="126.63" cy="47.21" r="8.42"/>
        <circle class="cls-2" cx="126.63" cy="47.19" r="3.89"/>
      </g>
      <g>
        <circle cx="143.58" cy="47.21" r="8.42"/>
        <circle class="cls-2" cx="143.58" cy="47.19" r="3.89"/>
      </g>
      <polygon class="cls-1" points="5.59 .17 .26 19.83 0 46.09 36.34 46.09 36.34 0 5.59 .17"/>
      <polyline class="cls-3" points="1.4 37.04 11.18 37.04 15.17 33.51 35.09 33.51"/>
      <line class="cls-3" x1="4.54" y1="7.55" x2="35.19" y2="7.55"/>
      <polygon class="cls-2" points="4.67 9.27 1.66 20.4 1.63 23.46 19.21 23.28 19.26 9.44 4.67 9.27"/>
      <g>
        <circle cx="19.8" cy="47.21" r="8.42"/>
        <circle class="cls-2" cx="19.8" cy="47.19" r="3.89"/>
      </g>
      <g>
        <circle cx="70.83" cy="47.21" r="8.42"/>
        <circle class="cls-2" cx="70.83" cy="47.19" r="3.89"/>
      </g>
      <rect class="cls-1" x="164.91" y="32.38" width="2.8" height="13.71"/>
      <rect class="cls-1" x="35.19" y="32.38" width="132.52" height="4.66"/>
    </g>
  </g>
</svg>